<svg xmlns="http://www.w3.org/2000/svg" viewBox="0 0 64 64" shape-rendering="geometricPrecision">
  <defs>
    <style>
      .st1 {
        fill: #00E5CC;
        stroke: none;
        fill-rule: evenodd;
      }
    </style>
  </defs>
  <path class="st1" d="M12 4h40v56H12zm4 4v4h32V8zM16 16v4h4v-4zm8 0v4h4v-4zm8 0v4h4v-4zm8 0v4h4v-4zm-24 8v4h4v-4zm8 0v4h4v-4zm8 0v4h4v-4zm8 0v4h4v-4zm-24 8v4h4v-4zm8 0v4h4v-4zm8 0v4h4v-4zm8 0v4h4v-4zm-24 8v4h4v-4zm8 0v4h4v-4zm8 0v4h4v-4zm8 0v4h4v-4zm-24 8v4h4v-4zm8 0v4h4v-4zm8 0v4h4v-4zm8 0v4h4v-4zm-14.82 2.766L48.16 38l1.32.748L18.5 56.49l-1.32-.746z" />
</svg>